<svg width="87" height="24" viewBox="0 0 87 24" fill="none" xmlns="http://www.w3.org/2000/svg">
<path d="M12.3287 11.5559C13.4971 11.2853 14.4411 10.7114 15.1606 9.83535C15.8801 8.95932 16.2405 7.83214 16.2405 6.45622C16.2405 4.68354 15.6411 3.3064 14.4411 2.32603C13.2411 1.34566 11.5255 0.855469 9.29413 0.855469H0V22.9478H9.48099C11.8385 22.9478 13.6379 22.4103 14.8791 21.3365C16.1203 20.2627 16.7404 18.797 16.7404 16.9406C16.7404 15.606 16.3387 14.4424 15.5355 13.4523C14.7323 12.4586 13.6633 11.8276 12.3287 11.5559ZM4.41168 4.39112H8.32347C9.49191 4.39112 10.357 4.64107 10.9212 5.14218C11.4842 5.64328 11.7657 6.35187 11.7657 7.27036C11.7657 8.18886 11.4781 8.89259 10.9054 9.38278C10.3315 9.87296 9.49191 10.1181 8.38656 10.1181H4.41289V4.39112H4.41168ZM11.2961 18.5811C10.6701 19.0919 9.7734 19.3479 8.60496 19.3479H4.41168V13.2776H8.57341C9.74185 13.2776 10.6434 13.5433 11.2804 14.0759C11.9161 14.6074 12.2353 15.3645 12.2353 16.3449C12.234 17.3253 11.921 18.0702 11.2961 18.5811Z" fill="#13394C"/>
<path d="M37.3768 1.98101C35.6976 1.02126 33.8254 0.541992 31.7603 0.541992C29.6952 0.541992 27.823 1.02247 26.1438 1.98101C24.4645 2.94075 23.1396 4.28149 22.1701 6.00199C21.2007 7.7225 20.7153 9.66869 20.7153 11.8381C20.7153 14.0076 21.2007 15.9586 22.1701 17.69C23.1408 19.4215 24.4645 20.767 26.1438 21.7268C27.823 22.6865 29.6952 23.1658 31.7603 23.1658C33.8254 23.1658 35.6976 22.6865 37.3768 21.7268C39.0561 20.767 40.381 19.4215 41.3505 17.69C42.3212 15.9586 42.8053 14.0088 42.8053 11.8381C42.8053 9.66869 42.3199 7.72371 41.3505 6.00199C40.381 4.28027 39.0561 2.94075 37.3768 1.98101ZM37.4703 15.671C36.917 16.7667 36.1501 17.6063 35.1698 18.1899C34.1894 18.7748 33.0525 19.066 31.7591 19.066C30.4657 19.066 29.3288 18.7735 28.3484 18.1899C27.368 17.6063 26.6012 16.7667 26.0479 15.671C25.4947 14.5754 25.2192 13.2978 25.2192 11.8381C25.2192 10.3785 25.4959 9.09963 26.0479 8.00521C26.6 6.90957 27.3668 6.06994 28.3484 5.48633C29.3288 4.90271 30.4657 4.6103 31.7591 4.6103C33.0525 4.6103 34.1894 4.90271 35.1698 5.48633C36.1501 6.06994 36.917 6.90957 37.4703 8.00521C38.0223 9.10085 38.299 10.3785 38.299 11.8381C38.3002 13.2978 38.0235 14.5754 37.4703 15.671Z" fill="#13394C"/>
<path d="M84.8617 13.4654C84.2357 12.5894 83.4797 11.9318 82.5928 11.4938C81.7059 11.0558 80.5532 10.5862 79.1348 10.0851C78.112 9.75143 77.3039 9.44931 76.7093 9.17752C76.1148 8.90695 75.6246 8.55751 75.2388 8.1292C74.8529 7.70211 74.66 7.1646 74.66 6.5179C74.66 5.70375 74.91 5.08374 75.4111 4.65664C75.9122 4.22955 76.5686 4.01479 77.3827 4.01479C78.3219 4.01479 79.062 4.2708 79.6044 4.78162C80.1467 5.29243 80.4804 5.9452 80.6054 6.73751H85.3616C85.1736 4.86048 84.3861 3.35838 82.9993 2.23119C81.6112 1.104 79.75 0.541016 77.4143 0.541016C75.1611 0.541016 73.3508 1.08823 71.9846 2.18387C70.6184 3.27951 69.9353 4.77555 69.9353 6.67442C69.9353 8.05155 70.2423 9.16782 70.8586 10.0232C71.4738 10.8786 72.22 11.5302 73.096 11.9791C73.9721 12.428 75.0993 12.8818 76.4752 13.3405C77.5393 13.696 78.3728 14.0078 78.9783 14.2796C79.5825 14.5514 80.0836 14.9105 80.4804 15.3595C80.8759 15.8084 81.0749 16.3762 81.0749 17.0654C81.0749 17.8371 80.8298 18.4692 80.3396 18.9582C79.8495 19.4484 79.1457 19.6935 78.2272 19.6935C77.2044 19.6935 76.3854 19.3962 75.7714 18.8017C75.1563 18.2072 74.7959 17.461 74.6916 16.5643H69.9984C70.1027 17.9002 70.525 19.0674 71.2651 20.0684C72.0053 21.0694 72.9905 21.8362 74.222 22.3689C75.4523 22.9003 76.8501 23.1673 78.4153 23.1673C79.9999 23.1673 81.3455 22.8809 82.4521 22.307C83.5574 21.7331 84.3922 20.9723 84.9552 20.0223C85.5181 19.0735 85.7996 18.0349 85.7996 16.9089C85.7996 15.4881 85.4878 14.3415 84.8617 13.4654Z" fill="#13394C"/>
<path d="M64.9194 0.0458528C63.8334 0.914599 62.9331 1.98112 62.2185 3.24905C61.2915 4.89433 60.7928 6.73739 60.7212 8.77821C60.7152 8.94929 60.7115 9.12159 60.7115 9.29509C60.7115 9.46981 60.7152 9.64211 60.7212 9.81319V11.6332V11.797V12.4255V12.7337V13.5248C60.7212 13.7747 60.7127 14.0137 60.6982 14.2455H60.7091C60.6144 15.6833 60.2286 16.7886 59.5491 17.5603C58.7593 18.4582 57.6309 18.9059 56.1615 18.9059C54.6703 18.9059 53.5298 18.4582 52.7411 17.5603C52.0617 16.7886 51.6758 15.6833 51.5812 14.2455C51.5654 14.0137 51.5581 13.7735 51.5581 13.5248V12.7337V12.4255V11.797V11.6332V9.81319C51.5642 9.64211 51.5678 9.46981 51.5678 9.29509C51.5678 9.12159 51.5642 8.94929 51.5581 8.77821C51.4865 6.73739 50.9879 4.89433 50.0609 3.24905C49.3462 1.98233 48.4459 0.914599 47.36 0.0458528C47.2229 -0.0633472 47.019 0.0349328 47.019 0.209653V11.632V11.7958V12.4243V12.7325V13.5236C47.019 13.7687 47.0239 14.0089 47.0348 14.2443C47.0967 15.7318 47.3539 17.0374 47.8041 18.1621C48.196 19.0491 48.8342 20.1035 49.4833 20.7526C51.1262 22.3955 53.3199 23.2169 56.0644 23.2169C57.8359 23.2169 59.4205 22.8602 60.8146 22.1467C62.2088 21.4333 63.2996 20.3473 64.0894 18.8889C64.7871 17.5991 65.1754 16.0497 65.2567 14.2443H65.247C65.2567 14.0077 65.2627 13.7687 65.2627 13.5236V12.7325V12.4243V11.7958V11.632V0.209653C65.2603 0.0349328 65.0565 -0.0633472 64.9194 0.0458528Z" fill="#C94561"/>
</svg>
