<svg width="119" height="32" viewBox="0 0 119 32" fill="none" xmlns="http://www.w3.org/2000/svg">
<path d="M16.9139 15.8533C18.5169 15.4821 19.8119 14.6948 20.799 13.4929C21.7861 12.2911 22.2805 10.7447 22.2805 8.85707C22.2805 6.42511 21.4582 4.5358 19.8119 3.19082C18.1656 1.84583 15.8119 1.17334 12.7507 1.17334H0V31.4821H13.0071C16.2414 31.4821 18.7099 30.7447 20.4128 29.2716C22.1157 27.7984 22.9663 25.7876 22.9663 23.2408C22.9663 21.4097 22.4153 19.8134 21.3134 18.4551C20.2114 17.0918 18.7449 16.2262 16.9139 15.8533ZM6.05243 6.02394H11.4191C13.0221 6.02394 14.2089 6.36685 14.9829 7.05432C15.7553 7.7418 16.1415 8.71392 16.1415 9.97401C16.1415 11.2341 15.747 12.1996 14.9613 12.8721C14.174 13.5445 13.0221 13.8808 11.5056 13.8808H6.0541V6.02394H6.05243ZM15.4973 25.4913C14.6384 26.1921 13.4082 26.5433 11.8052 26.5433H6.05243V18.2154H11.762C13.365 18.2154 14.6017 18.5799 15.4757 19.3107C16.3479 20.0398 16.7857 21.0785 16.7857 22.4235C16.784 23.7684 16.3546 24.7905 15.4973 25.4913Z" fill="white"/>
<path d="M51.2776 2.71785C48.9738 1.40116 46.4053 0.743652 43.5722 0.743652C40.7391 0.743652 38.1706 1.40283 35.8669 2.71785C33.5631 4.03454 31.7453 5.87391 30.4153 8.23429C29.0853 10.5947 28.4195 13.2647 28.4195 16.241C28.4195 19.2172 29.0853 21.8939 30.4153 24.2693C31.747 26.6446 33.5631 28.4906 35.8669 29.8073C38.1706 31.124 40.7391 31.7815 43.5722 31.7815C46.4053 31.7815 48.9738 31.124 51.2776 29.8073C53.5814 28.4906 55.3991 26.6446 56.7291 24.2693C58.0608 21.8939 58.7249 19.2189 58.7249 16.241C58.7249 13.2647 58.0591 10.5963 56.7291 8.23429C55.3991 5.87224 53.5814 4.03454 51.2776 2.71785ZM51.4058 21.4994C50.6467 23.0025 49.5947 24.1544 48.2497 24.9551C46.9047 25.7574 45.345 26.1569 43.5706 26.1569C41.7961 26.1569 40.2364 25.7557 38.8914 24.9551C37.5464 24.1544 36.4944 23.0025 35.7353 21.4994C34.9763 19.9963 34.5984 18.2435 34.5984 16.241C34.5984 14.2385 34.978 12.484 35.7353 10.9825C36.4927 9.4794 37.5448 8.32751 38.8914 7.52684C40.2364 6.72618 41.7961 6.32501 43.5706 6.32501C45.345 6.32501 46.9047 6.72618 48.2497 7.52684C49.5947 8.32751 50.6467 9.4794 51.4058 10.9825C52.1631 12.4856 52.5427 14.2385 52.5427 16.241C52.5443 18.2435 52.1648 19.9963 51.4058 21.4994Z" fill="white"/>
<path d="M116.423 18.4734C115.564 17.2715 114.527 16.3693 113.31 15.7684C112.093 15.1675 110.512 14.5233 108.566 13.8358C107.163 13.3781 106.054 12.9636 105.238 12.5907C104.423 12.2195 103.75 11.7401 103.221 11.1525C102.692 10.5666 102.427 9.82916 102.427 8.94194C102.427 7.825 102.77 6.9744 103.457 6.38846C104.145 5.80253 105.045 5.5079 106.162 5.5079C107.451 5.5079 108.466 5.85912 109.21 6.55991C109.954 7.2607 110.412 8.15625 110.583 9.24323H117.109C116.851 6.66811 115.77 4.60736 113.868 3.06096C111.963 1.51456 109.41 0.742188 106.206 0.742188C103.114 0.742188 100.631 1.49292 98.7566 2.99604C96.8822 4.49916 95.9451 6.55159 95.9451 9.15667C95.9451 11.046 96.3662 12.5774 97.2118 13.7509C98.0558 14.9245 99.0795 15.8183 100.281 16.4342C101.483 17.0501 103.03 17.6727 104.917 18.3019C106.377 18.7896 107.521 19.2174 108.351 19.5903C109.18 19.9632 109.868 20.4559 110.412 21.0718C110.955 21.6877 111.228 22.4667 111.228 23.4122C111.228 24.4709 110.891 25.3381 110.219 26.0089C109.546 26.6814 108.581 27.0177 107.321 27.0177C105.918 27.0177 104.794 26.6098 103.952 25.7942C103.108 24.9786 102.613 23.9548 102.47 22.7247H96.0316C96.1748 24.5574 96.7541 26.1587 97.7695 27.532C98.7849 28.9053 100.136 29.9573 101.826 30.6881C103.514 31.4172 105.432 31.7834 107.579 31.7834C109.753 31.7834 111.599 31.3905 113.117 30.6032C114.633 29.8158 115.779 28.7721 116.551 27.4688C117.323 26.1671 117.71 24.7422 117.71 23.1974C117.71 21.2482 117.282 19.6752 116.423 18.4734Z" fill="white"/>
<path d="M89.0637 0.062906C87.5739 1.25475 86.3388 2.71792 85.3583 4.45741C84.0866 6.71459 83.4024 9.2431 83.3042 12.0429C83.2959 12.2776 83.2909 12.514 83.2909 12.752C83.2909 12.9917 83.2959 13.2281 83.3042 13.4628V15.9597V16.1844V17.0467V17.4695V18.5548C83.3042 18.8977 83.2926 19.2256 83.2726 19.5436H83.2876C83.1577 21.5161 82.6284 23.0325 81.6962 24.0912C80.6126 25.323 79.0645 25.9372 77.0487 25.9372C75.0029 25.9372 73.4382 25.323 72.3562 24.0912C71.4241 23.0325 70.8947 21.5161 70.7649 19.5436C70.7432 19.2256 70.7333 18.896 70.7333 18.5548V17.4695V17.0467V16.1844V15.9597V13.4628C70.7416 13.2281 70.7466 12.9917 70.7466 12.752C70.7466 12.514 70.7416 12.2776 70.7333 12.0429C70.635 9.2431 69.9509 6.71459 68.6792 4.45741C67.6987 2.71959 66.4636 1.25475 64.9738 0.062906C64.7857 -0.0869068 64.506 0.0479247 64.506 0.287625V15.958V16.1828V17.045V17.4678V18.5531C64.506 18.8894 64.5127 19.219 64.5277 19.5419C64.6126 21.5827 64.9655 23.3738 65.583 24.9168C66.1207 26.1337 66.9963 27.5802 67.8868 28.4707C70.1407 30.7246 73.1502 31.8515 76.9155 31.8515C79.3458 31.8515 81.5198 31.3621 83.4324 30.3833C85.345 29.4046 86.8415 27.9148 87.9251 25.9139C88.8822 24.1445 89.4149 22.0188 89.5264 19.5419H89.5131C89.5264 19.2173 89.5348 18.8894 89.5348 18.5531V17.4678V17.045V16.1828V15.958V0.287625C89.5314 0.0479247 89.2518 -0.0869068 89.0637 0.062906Z" fill="#C94561"/>
</svg>
